<?xml version="1.0" encoding="UTF-8"?>
<svg id="Layer_2" data-name="Layer 2" xmlns="http://www.w3.org/2000/svg" viewBox="0 0 600.84 741">
  <defs>
    <style>
      .cls-1 {
        stroke-width: 0px;
      }
    </style>
  </defs>
  <g id="Playground_1" data-name="Playground 1">
    <g>
      <path class="cls-1" d="m234.5,741c-19.78-1.33-39.56-2.49-59.32-4.03-25.52-1.98-50.07-8.18-73.63-18.12-22.89-9.66-43.1-23.17-59.03-42.54-17.06-20.74-28.44-44.3-35.08-70.26-6.96-27.24-8.7-54.89-6.62-82.83,3.35-45.21,14.94-88.52,30.42-130.93,9.96-27.3,20.67-54.34,33.39-80.44,13.41-27.52,26.34-55.33,42.35-81.53,9.44-15.45,20.8-29.34,33.32-42.35,14.38-14.95,29.79-28.64,47.59-39.45,14.86-9.03,30.68-15.68,47.88-18.63,11.05-1.89,22.24-1.98,33.4-1.27,16.76,1.06,32.97,4.51,48.18,11.89,26.64,12.92,42.44,34.07,47.85,63.1,3.1,16.61,2.17,33.14-.7,49.69-3.08,17.79-4.64,35.69-2.82,53.75,1.83,18.19,7.55,34.85,18.64,49.61,17.48,23.26,34.03,47.14,47.64,72.94,12.23,23.19,21.78,47.35,25.96,73.35,3.49,21.72,6.76,43.48,5.77,65.61-1.63,36.33-10.65,70.22-32.91,99.7-13.41,17.76-30.75,30.82-50.27,41.15-21.64,11.46-44.76,18.77-68.46,24.47-17.26,4.15-34.85,5.58-52.51,6.22-6.99.25-14,.04-21,.04-.01.28-.03.55-.04.83Z"/>
      <path class="cls-1" d="m600.84,157.1c-10.9,5.32-21.68,10.93-32.75,15.89-13.85,6.21-28.27,11.03-43.23,13.67-7.99,1.41-16.23,1.61-24.38,1.94-21.22.85-42.29-.6-63.11-4.95-19.2-4.01-37.37-10.69-54.59-20.14-13.95-7.65-23.04-19.22-28.51-33.8-5.92-15.77-6.57-31.67-.1-47.53,2.11-5.18,5.17-9.57,9.55-13.18,19.18-15.78,41.07-23.47,65.91-21.86,17.08,1.1,32.22,7.85,46.25,17.3,12.01,8.1,22.53,17.98,32.72,28.19,15.47,15.48,31.85,29.87,50.03,42.1,12.42,8.36,26.08,14.36,39.7,20.41.76.34,1.5.7,2.25,1.06.08.31.16.62.25.92Z"/>
      <path class="cls-1" d="m420.16,10.92c-6.1,2.33-11.79,4.39-17.39,6.66-18.95,7.68-36.62,17.43-51.98,31.19-13.33,11.95-24.19,25.89-34.12,40.66-3.86,5.74-7.84,11.39-11.85,17.02-.53.75-1.71,1.66-2.44,1.54-7.05-1.14-14.07-2.48-21.54-3.85,2.31-4.08,4.35-7.85,6.54-11.53,16.82-28.28,37.89-53.09,61.9-75.49,3.65-3.41,7.58-6.54,11.06-10.11,3.68-3.78,8-5.59,13.16-6.26,15.44-2.03,30.04.12,43.56,8.16.92.55,1.8,1.17,3.12,2.04Z"/>
    </g>
  </g>
</svg>